<?xml version="1.0" encoding="utf-8"?>
<!-- Generator: Adobe Illustrator 23.0.5, SVG Export Plug-In . SVG Version: 6.00 Build 0)  -->
<svg version="1.1" id="Capa_1" xmlns="http://www.w3.org/2000/svg" xmlns:xlink="http://www.w3.org/1999/xlink" x="0px" y="0px"
	 viewBox="0 0 1440 810" style="enable-background:new 0 0 1440 810;" xml:space="preserve">
<style type="text/css">
	.st0{fill:#FFFFFF;}
</style>
<g>
	<path class="st0" d="M1441.76,811.2c-480.32,0-960.64,0-1440.96,0c0-270.08,0-540.16,0-810.24c480.32,0,960.64,0,1440.96,0
		C1441.76,271.04,1441.76,541.12,1441.76,811.2z M538.55,457.83c1.28,1.55,2.25,2.77,3.27,3.95c4.96,5.7,10.72,10.19,18.5,11.03
		c3.63,0.39,7.36,0.45,10.99,0.11c9.16-0.87,17.79-3.7,26.04-7.78c13.18-6.52,24.77-15.23,35.18-25.54
		c15.63-15.49,28.01-33.2,36.24-53.7c0.33-0.81,0.27-2,1.84-1.99c0,1.43,0,2.85,0,4.26c0,15.52,0.06,31.04-0.03,46.55
		c-0.03,5.43-0.37,10.87-0.73,16.29c-0.15,2.22-0.58,4.45-1.14,6.6c-1.06,4.03-3.25,7.27-7.17,9.11c-0.7,0.33-1.32,0.81-2.05,1.26
		c0.09,1.08,0.16,1.99,0.23,2.87c4.11,0.63,39.27,0.64,43.43,0c0-1.02,0-2.07,0-3.31c-6.53-2.26-9.04-7.46-9.75-13.68
		c-0.61-5.4-1.06-10.84-1.1-16.26c-0.14-17.76-0.06-35.51-0.05-53.27c0-1.28-0.01-2.57,0.16-3.83c1.64-12.19,7.28-22.35,15.78-31.08
		c1.89-1.94,3.78-2.46,6.43-1.67c6.12,1.84,12.3,3.47,18.49,5.06c4.35,1.12,8.77,1.76,13.29,1.67c3.31-0.07,6.33-0.93,8.85-3.14
		c3.21-2.82,5.38-6.33,6.46-10.45c0.81-3.12-0.08-5.26-2.95-6.86c-1.51-0.84-3.2-1.49-4.89-1.86c-7.95-1.72-15.91-1.39-23.77,0.53
		c-11.1,2.71-20.1,8.84-27.45,17.48c-3.33,3.91-6.17,8.16-8.53,12.73c-0.34,0.65-0.48,1.62-1.74,1.27
		c-0.04-0.59-0.12-1.21-0.12-1.83c-0.01-6.88-0.01-13.76-0.01-20.64c0-2.08,0.04-4.16-0.02-6.24c-0.11-3.93-1.57-4.93-5.07-3.45
		c-4.12,1.75-8.2,3.59-12.31,5.35c-0.98,0.42-2.03,0.66-2.98,0.96c-0.5-0.58-0.85-0.91-1.12-1.29c-3.18-4.41-7.54-6.28-12.88-5.92
		c-1.74,0.12-3.5,0.37-5.2,0.75c-4.72,1.08-9.02,3.19-13.16,5.65c-9.4,5.58-17.84,12.43-25.87,19.79
		c-16.67,15.25-32.03,31.75-46.64,48.96c-0.99,1.16-2.04,2.27-3.35,3.74c-0.33-1.37,0.04-2.05,0.4-2.76
		c1.88-3.71,3.77-7.41,5.61-11.13c5.3-10.76,10.35-21.62,14.27-32.98c1.72-4.99,3.19-10.05,4.05-15.27
		c0.62-3.75,0.12-7.34-1.62-10.72c-1.89-3.67-4.85-5.85-9.05-6.2c-2.75-0.23-5.41,0.06-8.02,1c-3.78,1.37-7.29,3.26-10.64,5.46
		c-10.21,6.71-19.25,14.82-27.97,23.31c-0.42,0.41-0.63,1.02-1.02,1.66c0.74,0.78,1.36,1.44,2.13,2.25c1.15-1,2.08-1.83,3.03-2.64
		c4.27-3.61,8.48-7.31,12.86-10.78c2.12-1.67,4.51-3.03,6.92-4.28c1.38-0.71,3.01-1.15,4.56-1.29c3.09-0.28,4.82,1.21,5.26,4.28
		c0.39,2.73,0.23,5.47-0.61,8.07c-1.8,5.62-3.36,11.38-5.75,16.75c-4.53,10.22-9.32,20.35-14.45,30.28
		c-22.73,44.04-45.61,87.99-68.44,131.98c-0.66,1.28-1.4,2.53-1.91,3.87c-0.99,2.6,0.12,4.57,2.93,4.68
		c4.79,0.19,9.59,0.1,14.39,0.05c2.12-0.02,3.59-1.18,4.54-3.03c0.66-1.28,1.33-2.55,1.98-3.84c12.92-25.35,25.83-50.71,38.76-76.05
		C536.65,461.15,537.53,459.67,538.55,457.83z M1028.45,467.96c-0.61-0.42-1.1-0.84-1.67-1.12c-4.21-2.07-6.43-5.62-7.46-10.03
		c-0.43-1.86-0.84-3.76-0.96-5.66c-0.36-5.74-0.8-11.49-0.81-17.24c-0.08-31.51-0.04-63.03-0.04-94.54c0-1.28,0.01-2.56-0.01-3.84
		c-0.01-0.64,0-1.29-0.11-1.91c-0.3-1.74-1.91-2.75-3.54-2.09c-3.4,1.38-6.75,2.9-10.14,4.31c-0.4,0.17-0.91,0.08-1.39,0.11
		c-0.55-0.97-1.07-1.9-1.57-2.78c-9.01,0-17.8,0-26.59,0.02c-0.26,0-0.52,0.3-0.93,0.55c0,0.83,0,1.75,0,2.76
		c0.8,0.42,1.48,0.82,2.2,1.13c3.84,1.64,5.59,4.69,5.59,8.7c0,2.54-0.1,5.15-0.7,7.6c-1.01,4.18-2.27,8.32-3.75,12.36
		c-2.9,7.96-6.01,15.84-9.05,23.74c-7.27,18.94-14.55,37.89-21.84,56.83c-0.37,0.95-0.33,2.25-1.86,2.46
		c-0.28-0.56-0.6-1.12-0.85-1.7c-12.58-29.73-25.18-59.45-37.69-89.21c-1.73-4.11-3.04-8.41-4.45-12.65
		c-1.13-3.4-0.61-6.33,2.85-8.19c1.76-0.95,1.91-2.39,1.07-4.43c-4.14-0.19-8.44-0.07-12.74-0.09c-4.48-0.02-8.96-0.09-13.44,0.02
		c-4.24,0.1-8.53-0.5-12.63,0.37c-0.74,2.02-0.35,3.37,1.27,4.37c4.5,2.78,7.54,6.9,9.95,11.46c2.16,4.09,4.16,8.29,5.98,12.54
		c4.53,10.58,8.92,21.21,13.36,31.83c10.18,24.33,20.34,48.65,30.54,72.97c0.67,1.59,0.96,3.41,2.45,4.51c3.71,0,7.36,0,11.28,0
		c0.67-1.68,1.34-3.29,1.96-4.91c13.02-33.69,26.02-67.38,39.07-101.05c1.73-4.47,3.69-8.84,5.61-13.23
		c0.34-0.78,1.04-1.41,1.56-2.11c3.17,1.71,4.54,4.35,5.41,7.35c1.26,4.36,1.27,8.87,1.29,13.33c0.06,23.04,0.07,46.07-0.02,69.11
		c-0.02,4.62-0.47,9.25-0.91,13.86c-0.62,6.47-3.21,11.71-9.84,14.19c0.05,1.21,0.1,2.26,0.15,3.46c1.49,0.08,2.76,0.2,4.02,0.2
		c11.84,0.01,23.68,0.01,35.51,0c0.96,0,1.92-0.05,2.87-0.14c0.28-0.03,0.54-0.31,0.98-0.58
		C1028.45,469.81,1028.45,468.89,1028.45,467.96z M1121.02,417.28c0.09,2.47,0.19,4,0.2,5.53c0.01,12.31,0.01,24.62,0.01,36.94
		c0,1.28-0.06,2.56,0.04,3.84c0.4,5,2.94,7.58,8.03,7.66c7.83,0.12,15.66-0.02,23.5-0.08c0.26,0,0.52-0.29,0.99-0.58
		c-0.05-0.94-0.11-1.99-0.15-2.77c-1.9-1.27-3.63-2.17-5.04-3.43c-2.75-2.45-3.8-5.8-4.49-9.32c-1.2-6.17-1.17-12.41-1.2-18.64
		c-0.07-17.75,0.02-35.5-0.06-53.25c-0.02-4.31-0.25-8.64-0.73-12.92c-0.63-5.58-2.14-10.96-4.59-16.05
		c-4.83-10.03-12.42-16.91-23.12-20.19c-11.56-3.54-23.31-3.88-35.07-1.36c-18.67,4-32.91,14.94-44.78,29.39
		c-0.16,0.19-0.06,0.59-0.1,1.13c0.6,0.45,1.3,0.98,2.12,1.6c1.28-1.38,2.35-2.55,3.43-3.71c4.58-4.96,9.63-9.36,15.45-12.81
		c12.08-7.16,25.03-9.44,38.75-6.51c12.07,2.57,20.2,9.76,24.17,21.56c1.38,4.12,2.15,8.35,2.65,12.64
		c0.13,1.07,0.02,2.17,0.02,3.36c-1.15,0.38-2.03,0.72-2.94,0.97c-11.71,3.18-23.44,6.29-35.14,9.54
		c-10.78,2.99-21.39,6.51-31.61,11.12c-6.91,3.11-13.17,7.21-18.51,12.64c-4.75,4.83-7.63,10.61-8.66,17.28
		c-0.61,3.96-0.7,7.92-0.28,11.95c1.28,12.15,7.51,20.94,18.17,26.46c9.88,5.11,20.38,6.16,31.21,3.42
		c8.95-2.26,16.31-7.21,22.85-13.5c10.82-10.43,18.02-23.12,22.89-37.22C1119.5,420.65,1119.84,419.32,1121.02,417.28z
		 M431.21,418.84c0.3,0.08,0.6,0.15,0.9,0.23c0.05,1.58,0.14,3.16,0.14,4.74c0.01,11.99-0.01,23.99,0.02,35.98
		c0,1.75,0.05,3.53,0.33,5.25c0.58,3.65,2.66,5.61,6.34,6.15c0.79,0.12,1.59,0.11,2.39,0.11c7.04,0.01,14.07,0.01,21.11-0.02
		c0.75,0,1.51-0.25,2.13-0.36c0.85-2.01,0.45-3.35-1.37-4.15c-4.69-2.07-6.87-5.99-7.89-10.75c-0.2-0.94-0.32-1.89-0.48-2.83
		c-0.94-5.55-0.95-11.14-0.95-16.74c-0.01-18.55-0.03-37.1,0-55.65c0.01-5.79-0.54-11.51-1.97-17.1
		c-4.22-16.44-14.1-27.23-31.08-30.93c-7.58-1.65-15.23-2-22.89-1.31c-7.35,0.66-14.49,2.47-21.2,5.63
		c-11.92,5.61-21.85,13.79-30.33,23.79c-0.48,0.56-0.77,1.29-1.24,2.1c0.94,0.68,1.66,1.2,2.47,1.79c1.37-1.48,2.55-2.77,3.74-4.05
		c4.27-4.58,8.95-8.69,14.3-11.97c12.43-7.62,25.83-10.06,40.05-6.89c11.44,2.55,19.37,9.39,23.36,20.57
		c1.67,4.7,2.73,9.52,2.93,14.51c0.03,0.77-0.12,1.54-0.2,2.45c-1,0.33-1.88,0.67-2.78,0.91c-10.48,2.85-20.96,5.68-31.44,8.52
		c-11.42,3.09-22.66,6.69-33.54,11.38c-7.11,3.06-13.58,7.08-19.21,12.44c-5.3,5.04-8.52,11.16-9.63,18.33
		c-0.46,2.98-0.5,6.06-0.39,9.08c0.5,14.39,7.53,24.59,20.59,30.25c14.33,6.21,28.38,4.97,41.74-3.19c4.66-2.85,8.76-6.43,12.5-10.4
		c9.26-9.82,15.71-21.3,20.15-33.97C430.26,421.42,430.71,420.12,431.21,418.84z M880.7,380.16c0.21-5.49-0.6-10.18-2.17-14.71
		c-5.45-15.78-16.46-26.22-32.12-31.2c-18.28-5.81-36.36-4.22-53.57,4.37c-18.53,9.25-30.89,23.96-37.06,43.73
		c-3.18,10.19-3.9,20.72-3.04,31.32c0.53,6.54,1.83,12.95,4.17,19.14c11.95,31.63,46.07,45.88,74.72,39.95
		c10.57-2.19,19.83-7.03,28.35-13.43c8.37-6.29,15.44-13.88,21.79-22.17c0.47-0.61,0.82-1.32,1.37-2.21
		c-0.88-0.77-1.65-1.44-2.54-2.22c-0.87,0.85-1.57,1.49-2.22,2.18c-4.08,4.32-8.57,8.15-13.48,11.49c-5.59,3.82-11.6,6.73-18.2,8.33
		c-6.75,1.64-13.62,1.7-20.5,1.4c-6.78-0.3-13.29-1.81-19.51-4.5c-14.8-6.4-24.45-17.61-30-32.53c-4.39-11.8-4.8-24.05-3.82-36.42
		c0.06-0.75,0.48-1.47,0.83-2.51c17.79,0,35.52,0,53.26,0C844.69,380.17,862.42,380.18,880.7,380.16z M337.85,467.99
		c-0.78-0.54-1.13-0.89-1.56-1.08c-4.74-2.04-6.94-5.99-7.89-10.73c-0.6-2.97-0.97-6-1.13-9.03c-0.23-4.63-0.24-9.27-0.24-13.9
		c-0.01-58.99-0.01-117.97-0.01-176.96c0-1.44,0.06-2.88-0.04-4.31c-0.18-2.79-2.01-4.01-4.55-3.11c-0.15,0.05-0.29,0.14-0.43,0.2
		c-8.63,3.79-17.25,7.58-25.88,11.37c-0.44,0.19-0.85,0.45-1.24,0.73c-0.97,0.71-1.14,2.66-0.26,3.43c0.47,0.42,1.04,0.75,1.62,1.02
		c4.97,2.35,7.32,6.53,7.96,11.74c0.46,3.8,0.84,7.63,0.85,11.45c0.08,22.86,0.04,45.72,0.04,68.58c0,26.86,0.05,53.71-0.04,80.57
		c-0.02,5.1-0.41,10.22-0.94,15.3c-0.62,5.97-2.67,11.17-8.71,13.88c-1.63,0.73-1.57,1.31-0.55,3.93
		c5.57,0.47,38.96,0.37,42.73-0.15C337.67,470.03,337.75,469.1,337.85,467.99z M1004.94,314.21c9.51,0.31,15.47-8.44,15.41-15.11
		c-0.08-8.89-6.53-15.7-15.26-15.74c-8.61-0.03-15.35,6.9-15.45,15.63C989.56,305.92,995.69,314.49,1004.94,314.21z"/>
	<path d="M538.55,457.83c-1.02,1.84-1.9,3.32-2.68,4.86c-12.93,25.35-25.84,50.7-38.76,76.05c-0.65,1.28-1.32,2.56-1.98,3.84
		c-0.96,1.84-2.43,3.01-4.54,3.03c-4.8,0.05-9.6,0.14-14.39-0.05c-2.81-0.11-3.93-2.08-2.93-4.68c0.51-1.34,1.25-2.59,1.91-3.87
		c22.83-43.99,45.71-87.94,68.44-131.98c5.13-9.94,9.92-20.06,14.45-30.28c2.38-5.38,3.94-11.13,5.75-16.75
		c0.84-2.61,1-5.35,0.61-8.07c-0.44-3.06-2.17-4.56-5.26-4.28c-1.55,0.14-3.18,0.58-4.56,1.29c-2.4,1.24-4.8,2.6-6.92,4.28
		c-4.39,3.47-8.59,7.17-12.86,10.78c-0.95,0.81-1.89,1.64-3.03,2.64c-0.77-0.81-1.39-1.47-2.13-2.25c0.39-0.65,0.6-1.26,1.02-1.66
		c8.72-8.49,17.76-16.61,27.97-23.31c3.35-2.2,6.85-4.09,10.64-5.46c2.61-0.94,5.27-1.23,8.02-1c4.21,0.35,7.16,2.53,9.05,6.2
		c1.74,3.38,2.24,6.96,1.62,10.72c-0.86,5.22-2.33,10.28-4.05,15.27c-3.92,11.36-8.97,22.22-14.27,32.98
		c-1.84,3.73-3.73,7.43-5.61,11.13c-0.36,0.7-0.73,1.38-0.4,2.76c1.32-1.47,2.37-2.58,3.35-3.74
		c14.61-17.21,29.98-33.71,46.64-48.96c8.04-7.36,16.47-14.21,25.87-19.79c4.14-2.46,8.44-4.57,13.16-5.65
		c1.7-0.39,3.46-0.64,5.2-0.75c5.34-0.36,9.7,1.52,12.88,5.92c0.27,0.38,0.62,0.72,1.12,1.29c0.96-0.3,2.01-0.54,2.98-0.96
		c4.11-1.76,8.19-3.6,12.31-5.35c3.5-1.48,4.96-0.48,5.07,3.45c0.06,2.08,0.02,4.16,0.02,6.24c0,6.88,0,13.76,0.01,20.64
		c0,0.62,0.08,1.23,0.12,1.83c1.26,0.36,1.4-0.62,1.74-1.27c2.36-4.57,5.2-8.82,8.53-12.73c7.35-8.64,16.35-14.77,27.45-17.48
		c7.86-1.92,15.82-2.25,23.77-0.53c1.69,0.37,3.38,1.01,4.89,1.86c2.87,1.6,3.76,3.74,2.95,6.86c-1.07,4.13-3.25,7.64-6.46,10.45
		c-2.52,2.21-5.54,3.07-8.85,3.14c-4.51,0.09-8.94-0.55-13.29-1.67c-6.19-1.59-12.37-3.22-18.49-5.06c-2.64-0.8-4.54-0.28-6.43,1.67
		c-8.5,8.73-14.14,18.89-15.78,31.08c-0.17,1.26-0.16,2.55-0.16,3.83c-0.01,17.76-0.08,35.52,0.05,53.27
		c0.04,5.43,0.49,10.87,1.1,16.26c0.7,6.23,3.22,11.42,9.75,13.68c0,1.24,0,2.29,0,3.31c-4.17,0.64-39.32,0.63-43.43,0
		c-0.07-0.87-0.14-1.79-0.23-2.87c0.73-0.46,1.35-0.94,2.05-1.26c3.92-1.84,6.11-5.08,7.17-9.11c0.57-2.15,1-4.39,1.14-6.6
		c0.36-5.42,0.7-10.86,0.73-16.29c0.09-15.52,0.03-31.04,0.03-46.55c0-1.42,0-2.84,0-4.26c-1.57-0.01-1.51,1.17-1.84,1.99
		c-8.23,20.5-20.61,38.21-36.24,53.7c-10.41,10.31-22,19.02-35.18,25.54c-8.24,4.08-16.87,6.91-26.04,7.78
		c-3.63,0.34-7.36,0.29-10.99-0.11c-7.78-0.84-13.53-5.33-18.5-11.03C540.8,460.61,539.84,459.39,538.55,457.83z M550.16,434.48
		c3.55,10.66,9.84,18.99,19.55,24.61c4.53,2.62,9.39,3.91,14.66,3.63c7.49-0.4,14.42-2.54,20.83-6.42
		c7.48-4.52,13.81-10.33,19.14-17.21c13.36-17.22,21.81-36.69,26.35-57.92c1.54-7.21,2.38-14.51,1.92-21.89
		c-0.16-2.53-0.51-5.12-1.27-7.52c-1.52-4.83-5.58-7.05-10.53-5.89c-2,0.47-4.01,1.2-5.79,2.21c-3.32,1.89-6.69,3.82-9.66,6.2
		c-6.11,4.89-12.19,9.84-17.9,15.19c-20.23,18.95-38.27,39.87-55.16,61.81C551.55,432.28,550.9,433.38,550.16,434.48z"/>
	<path d="M1028.45,467.96c0,0.93,0,1.85,0,2.67c-0.44,0.27-0.7,0.55-0.98,0.58c-0.95,0.1-1.91,0.14-2.87,0.14
		c-11.84,0.01-23.68,0.01-35.51,0c-1.26,0-2.53-0.12-4.02-0.2c-0.05-1.2-0.1-2.25-0.15-3.46c6.63-2.47,9.22-7.72,9.84-14.19
		c0.44-4.61,0.89-9.24,0.91-13.86c0.1-23.04,0.08-46.07,0.02-69.11c-0.01-4.47-0.03-8.97-1.29-13.33c-0.86-3-2.24-5.64-5.41-7.35
		c-0.53,0.7-1.22,1.33-1.56,2.11c-1.92,4.39-3.88,8.77-5.61,13.23c-13.05,33.67-26.05,67.37-39.07,101.05
		c-0.63,1.62-1.29,3.23-1.96,4.91c-3.92,0-7.56,0-11.28,0c-1.49-1.1-1.78-2.92-2.45-4.51c-10.19-24.32-20.36-48.65-30.54-72.97
		c-4.44-10.61-8.83-21.25-13.36-31.83c-1.82-4.26-3.82-8.45-5.98-12.54c-2.41-4.56-5.45-8.67-9.95-11.46
		c-1.62-1.01-2.02-2.36-1.27-4.37c4.1-0.87,8.39-0.27,12.63-0.37c4.48-0.11,8.96-0.04,13.44-0.02c4.3,0.02,8.6-0.09,12.74,0.09
		c0.84,2.04,0.69,3.49-1.07,4.43c-3.46,1.86-3.98,4.78-2.85,8.19c1.41,4.24,2.72,8.54,4.45,12.65
		c12.51,29.76,25.11,59.48,37.69,89.21c0.25,0.58,0.56,1.13,0.85,1.7c1.53-0.21,1.5-1.51,1.86-2.46
		c7.29-18.94,14.57-37.88,21.84-56.83c3.04-7.91,6.15-15.79,9.05-23.74c1.47-4.04,2.73-8.18,3.75-12.36c0.59-2.45,0.7-5.06,0.7-7.6
		c0-4.01-1.75-7.06-5.59-8.7c-0.72-0.31-1.39-0.71-2.2-1.13c0-1.01,0-1.93,0-2.76c0.41-0.25,0.67-0.55,0.93-0.55
		c8.79-0.02,17.58-0.02,26.59-0.02c0.5,0.88,1.02,1.8,1.57,2.78c0.48-0.03,0.99,0.06,1.39-0.11c3.39-1.42,6.74-2.93,10.14-4.31
		c1.63-0.66,3.25,0.34,3.54,2.09c0.11,0.63,0.1,1.27,0.11,1.91c0.02,1.28,0.01,2.56,0.01,3.84c0,31.51-0.04,63.03,0.04,94.54
		c0.01,5.75,0.45,11.5,0.81,17.24c0.12,1.9,0.53,3.8,0.96,5.66c1.03,4.4,3.24,7.96,7.46,10.03
		C1027.35,467.11,1027.84,467.54,1028.45,467.96z"/>
	<path d="M1121.02,417.28c-1.18,2.04-1.52,3.36-1.97,4.66c-4.86,14.1-12.07,26.79-22.89,37.22c-6.53,6.29-13.89,11.25-22.85,13.5
		c-10.84,2.73-21.34,1.69-31.21-3.42c-10.67-5.52-16.89-14.31-18.17-26.46c-0.42-4.02-0.33-7.99,0.28-11.95
		c1.03-6.67,3.91-12.45,8.66-17.28c5.34-5.43,11.6-9.52,18.51-12.64c10.22-4.6,20.83-8.12,31.61-11.12
		c11.69-3.25,23.42-6.36,35.14-9.54c0.9-0.25,1.78-0.58,2.94-0.97c0-1.19,0.11-2.28-0.02-3.36c-0.5-4.29-1.27-8.52-2.65-12.64
		c-3.97-11.79-12.1-18.98-24.17-21.56c-13.72-2.93-26.68-0.65-38.75,6.51c-5.83,3.45-10.87,7.85-15.45,12.81
		c-1.08,1.16-2.15,2.33-3.43,3.71c-0.83-0.62-1.53-1.15-2.12-1.6c0.04-0.55-0.06-0.94,0.1-1.13c11.87-14.45,26.11-25.38,44.78-29.39
		c11.75-2.52,23.51-2.18,35.07,1.36c10.7,3.28,18.29,10.16,23.12,20.19c2.45,5.09,3.96,10.47,4.59,16.05
		c0.48,4.28,0.71,8.61,0.73,12.92c0.08,17.75-0.01,35.5,0.06,53.25c0.02,6.23-0.01,12.47,1.2,18.64c0.69,3.52,1.74,6.87,4.49,9.32
		c1.41,1.26,3.14,2.16,5.04,3.43c0.04,0.78,0.1,1.83,0.15,2.77c-0.47,0.28-0.73,0.57-0.99,0.58c-7.83,0.06-15.67,0.2-23.5,0.08
		c-5.09-0.08-7.63-2.66-8.03-7.66c-0.1-1.27-0.04-2.56-0.04-3.84c0-12.31,0-24.62-0.01-36.94
		C1121.22,421.29,1121.11,419.76,1121.02,417.28z M1120.99,383.74c-1.46,0.26-2.7,0.39-3.89,0.71c-10.33,2.76-20.66,5.5-30.97,8.34
		c-6.93,1.92-13.67,4.42-20.16,7.54c-5.53,2.66-10.46,6.12-14.62,10.67c-2.98,3.26-4.98,7.06-5.9,11.34
		c-0.91,4.23-1.1,8.49-0.49,12.85c1.51,10.86,7.65,17.74,17.9,20.84c10.55,3.18,20.55,1.46,29.69-4.75
		c6.03-4.1,10.89-9.36,14.84-15.46c7.24-11.16,11.74-23.37,13.44-36.55C1121.5,394.22,1121.4,389.12,1120.99,383.74z"/>
	<path d="M431.21,418.84c-0.5,1.29-0.95,2.58-1.41,3.89c-4.44,12.67-10.89,24.16-20.15,33.97c-3.75,3.97-7.84,7.55-12.5,10.4
		c-13.35,8.16-27.4,9.39-41.74,3.19c-13.07-5.66-20.1-15.87-20.59-30.25c-0.1-3.02-0.07-6.11,0.39-9.08
		c1.11-7.16,4.33-13.28,9.63-18.33c5.63-5.36,12.1-9.38,19.21-12.44c10.88-4.68,22.12-8.29,33.54-11.38
		c10.48-2.83,20.96-5.67,31.44-8.52c0.9-0.24,1.78-0.58,2.78-0.91c0.08-0.91,0.23-1.69,0.2-2.45c-0.2-4.99-1.26-9.81-2.93-14.51
		c-3.98-11.18-11.92-18.03-23.36-20.57c-14.22-3.17-27.63-0.73-40.05,6.89c-5.35,3.28-10.03,7.39-14.3,11.97
		c-1.19,1.28-2.38,2.57-3.74,4.05c-0.81-0.59-1.53-1.1-2.47-1.79c0.47-0.81,0.76-1.54,1.24-2.1c8.48-10.01,18.41-18.18,30.33-23.79
		c6.72-3.16,13.85-4.97,21.2-5.63c7.66-0.69,15.31-0.34,22.89,1.31c16.98,3.7,26.86,14.49,31.08,30.93
		c1.44,5.59,1.98,11.32,1.97,17.1c-0.03,18.55-0.01,37.1,0,55.65c0,5.6,0.02,11.2,0.95,16.74c0.16,0.94,0.28,1.9,0.48,2.83
		c1.02,4.76,3.2,8.68,7.89,10.75c1.82,0.81,2.22,2.14,1.37,4.15c-0.62,0.11-1.38,0.35-2.13,0.36c-7.04,0.03-14.07,0.02-21.11,0.02
		c-0.8,0-1.61,0.01-2.39-0.11c-3.67-0.55-5.75-2.5-6.34-6.15c-0.28-1.72-0.32-3.5-0.33-5.25c-0.03-11.99-0.01-23.99-0.02-35.98
		c0-1.58-0.09-3.16-0.14-4.74C431.81,418.99,431.51,418.91,431.21,418.84z M431.69,383.79c-1.41,0.27-2.65,0.44-3.86,0.76
		c-10.18,2.71-20.37,5.42-30.53,8.2c-6.94,1.9-13.68,4.41-20.18,7.52c-5.24,2.5-9.96,5.73-14,9.93c-4.38,4.56-6.84,9.98-7.22,16.29
		c-0.13,2.23-0.14,4.47-0.03,6.7c0.65,13.52,9.31,20.32,17.97,22.83c10.41,3.02,20.26,1.56,29.32-4.47
		c6.21-4.13,11.2-9.5,15.26-15.73c4.75-7.28,8.21-15.13,10.72-23.45c2.57-8.52,3.37-17.22,3.08-26.06
		C432.19,385.57,431.91,384.81,431.69,383.79z"/>
	<path d="M880.7,380.16c-18.28,0.02-36.01,0.01-53.74,0.01c-17.74,0-35.47,0-53.26,0c-0.35,1.03-0.77,1.75-0.83,2.51
		c-0.98,12.37-0.57,24.62,3.82,36.42c5.55,14.93,15.2,26.13,30,32.53c6.22,2.69,12.73,4.2,19.51,4.5c6.89,0.3,13.75,0.23,20.5-1.4
		c6.61-1.6,12.61-4.52,18.2-8.33c4.91-3.35,9.4-7.17,13.48-11.49c0.65-0.69,1.35-1.33,2.22-2.18c0.89,0.78,1.66,1.45,2.54,2.22
		c-0.55,0.89-0.9,1.6-1.37,2.21c-6.34,8.29-13.42,15.89-21.79,22.17c-8.52,6.4-17.78,11.24-28.35,13.43
		c-28.65,5.93-62.77-8.32-74.72-39.95c-2.34-6.19-3.64-12.6-4.17-19.14c-0.86-10.6-0.14-21.13,3.04-31.32
		c6.16-19.77,18.53-34.48,37.06-43.73c17.21-8.59,35.29-10.18,53.57-4.37c15.65,4.98,26.66,15.42,32.12,31.2
		C880.1,369.98,880.92,374.67,880.7,380.16z M858.48,375.87c-0.23-1.45-0.31-2.89-0.69-4.25c-2.35-8.43-6.26-16.04-12.27-22.46
		c-7.03-7.52-15.52-12.15-25.94-12.82c-14.39-0.93-26.34,3.66-35.08,15.54c-4.71,6.4-7.81,13.51-9.71,21.17
		c-0.22,0.9-0.16,1.87-0.24,2.85c0.58,0.17,1.03,0.4,1.47,0.4c26.98,0.02,53.96,0.03,80.93,0.01
		C857.39,376.31,857.84,376.06,858.48,375.87z"/>
	<path d="M337.85,467.99c-0.1,1.11-0.18,2.03-0.26,2.92c-3.77,0.52-37.15,0.63-42.73,0.15c-1.03-2.62-1.08-3.2,0.55-3.93
		c6.04-2.71,8.09-7.9,8.71-13.88c0.52-5.08,0.92-10.19,0.94-15.3c0.09-26.86,0.04-53.71,0.04-80.57c0-22.86,0.04-45.72-0.04-68.58
		c-0.01-3.82-0.39-7.65-0.85-11.45c-0.64-5.22-2.99-9.39-7.96-11.74c-0.57-0.27-1.14-0.61-1.62-1.02c-0.88-0.77-0.71-2.71,0.26-3.43
		c0.38-0.28,0.8-0.54,1.24-0.73c8.62-3.8,17.25-7.58,25.88-11.37c0.15-0.06,0.28-0.15,0.43-0.2c2.53-0.9,4.37,0.32,4.55,3.11
		c0.09,1.43,0.04,2.88,0.04,4.31c0,58.99,0,117.97,0.01,176.96c0,4.63,0.01,9.28,0.24,13.9c0.15,3.02,0.53,6.06,1.13,9.03
		c0.95,4.74,3.16,8.7,7.89,10.73C336.72,467.1,337.08,467.45,337.85,467.99z"/>
	<path d="M1004.94,314.21c-9.26,0.28-15.39-8.3-15.3-15.23c0.11-8.72,6.84-15.66,15.45-15.63c8.73,0.03,15.18,6.85,15.26,15.74
		C1020.41,305.77,1014.46,314.53,1004.94,314.21z"/>
	<path class="st0" d="M550.16,434.48c0.74-1.1,1.39-2.2,2.16-3.2c16.88-21.94,34.93-42.86,55.16-61.81
		c5.7-5.34,11.79-10.3,17.9-15.19c2.97-2.38,6.34-4.3,9.66-6.2c1.78-1.01,3.79-1.74,5.79-2.21c4.95-1.16,9.01,1.06,10.53,5.89
		c0.76,2.41,1.11,4.99,1.27,7.52c0.47,7.38-0.38,14.68-1.92,21.89c-4.54,21.23-12.99,40.71-26.35,57.92
		c-5.34,6.88-11.66,12.69-19.14,17.21c-6.42,3.88-13.34,6.02-20.83,6.42c-5.27,0.28-10.13-1.01-14.66-3.63
		C560,453.47,553.71,445.14,550.16,434.48z"/>
	<path class="st0" d="M1120.99,383.74c0.4,5.38,0.51,10.48-0.15,15.53c-1.71,13.18-6.2,25.39-13.44,36.55
		c-3.96,6.1-8.81,11.36-14.84,15.46c-9.14,6.21-19.13,7.93-29.69,4.75c-10.25-3.09-16.39-9.98-17.9-20.84
		c-0.61-4.36-0.42-8.62,0.49-12.85c0.92-4.28,2.92-8.08,5.9-11.34c4.16-4.54,9.09-8.01,14.62-10.67c6.49-3.12,13.22-5.62,20.16-7.54
		c10.3-2.85,20.64-5.59,30.97-8.34C1118.3,384.13,1119.54,384,1120.99,383.74z"/>
	<path class="st0" d="M431.69,383.79c0.22,1.03,0.5,1.78,0.52,2.54c0.29,8.84-0.51,17.53-3.08,26.06
		c-2.51,8.32-5.98,16.17-10.72,23.45c-4.06,6.23-9.05,11.6-15.26,15.73c-9.06,6.03-18.91,7.49-29.32,4.47
		c-8.66-2.51-17.32-9.31-17.97-22.83c-0.11-2.23-0.1-4.48,0.03-6.7c0.38-6.31,2.84-11.73,7.22-16.29c4.04-4.2,8.76-7.43,14-9.93
		c6.5-3.11,13.23-5.61,20.18-7.52c10.16-2.79,20.35-5.49,30.53-8.2C429.04,384.23,430.29,384.06,431.69,383.79z"/>
	<path class="st0" d="M858.48,375.87c-0.64,0.19-1.08,0.44-1.53,0.44c-26.98,0.01-53.96,0.01-80.93-0.01c-0.45,0-0.89-0.24-1.47-0.4
		c0.07-0.98,0.01-1.95,0.24-2.85c1.91-7.66,5.01-14.78,9.71-21.17c8.74-11.88,20.69-16.46,35.08-15.54
		c10.42,0.67,18.91,5.31,25.94,12.82c6.01,6.42,9.92,14.03,12.27,22.46C858.16,372.98,858.25,374.42,858.48,375.87z"/>
</g>
<g>
	<path d="M2900.96,811.2c-480,0-960,0-1440,0c0-270.08,0-540.16,0-810.24c480,0,960,0,1440,0
		C2900.96,271.04,2900.96,541.12,2900.96,811.2z M1991.62,364.2c1.22-1.02,2.3-1.92,3.37-2.83c3.78-3.21,7.47-6.53,11.36-9.59
		c2.38-1.86,5.03-3.4,7.64-4.93c1.66-0.97,3.52-1.47,5.51-1.42c3.17,0.08,4.87,1.36,5.04,4.55c0.14,2.68,0.08,5.5-0.61,8.06
		c-1.37,5.08-3.04,10.1-4.95,15c-4.06,10.44-9.12,20.43-14.27,30.36c-23.03,44.42-46.08,88.82-69.12,133.23
		c-0.81,1.56-1.67,3.11-2.29,4.74c-0.72,1.93,0.32,3.56,2.29,3.92c0.31,0.06,0.64,0.1,0.95,0.1c4.48,0.01,8.96,0,13.44,0.02
		c2.12,0.01,3.69-0.89,4.69-2.75c0.6-1.13,1.19-2.26,1.77-3.4c6.98-13.67,13.96-27.33,20.93-41c6.46-12.67,12.91-25.36,19.4-38.02
		c0.46-0.91,0.61-2.26,1.83-2.24c2.94,2.99,5.61,5.97,8.55,8.64c3.76,3.41,8.28,5.25,13.36,5.96c7.12,0.98,14.04-0.06,20.88-1.78
		c11-2.75,20.92-7.92,30.16-14.33c23.79-16.5,41.78-37.95,54.06-64.17c1.29-2.75,2.37-5.59,3.54-8.39c0.27-0.64,0.61-1.1,1.64-0.59
		c0,1.47,0,3.05,0,4.64c0,12.32,0.01,24.63,0,36.95c0,5.28,0.08,10.56-0.1,15.83c-0.18,5.43-0.34,10.88-1.61,16.2
		c-1.05,4.41-3.26,7.96-7.48,10.01c-0.69,0.33-1.3,0.81-1.98,1.24c0.11,0.98,0.2,1.74,0.29,2.46c4.09,0.7,24.57,0.94,40.39,0.48
		c0.75-0.02,1.5-0.23,2.38-0.37c0-1.14,0-2.05,0-2.96c-3.22-1.55-6.08-3.37-7.47-6.65c-0.87-2.04-1.66-4.2-1.96-6.38
		c-0.57-4.11-1.04-8.27-1.07-12.41c-0.13-19.83-0.12-39.67-0.08-59.51c0-2.22,0.25-4.48,0.73-6.65c2.19-9.93,7.04-18.46,14.01-25.8
		c1.3-1.37,2.82-2.54,4.22-3.79c1.01,0.28,1.77,0.5,2.53,0.7c6.79,1.81,13.57,3.68,20.38,5.39c4.03,1.02,8.14,1.7,12.33,1.55
		c7.41-0.27,14.43-6.91,15.13-14.25c0.26-2.69-0.59-4.77-3.07-5.91c-1.73-0.79-3.54-1.58-5.4-1.89c-15.25-2.55-29.26,0.37-41.64,9.9
		c-6.95,5.35-12.25,12.11-16.45,19.78c-0.64,1.18-0.96,2.64-2.62,3.8c-0.08-2-0.18-3.53-0.18-5.07c-0.02-8.32-0.05-16.64,0.01-24.95
		c0.01-1.95-0.48-3.44-2.77-4.35c-4.55,2-9.36,4.13-14.19,6.21c-1.12,0.48-2.31,0.8-3.41,1.17c-0.51-0.6-0.86-0.93-1.13-1.32
		c-3.88-5.55-9.35-6.89-15.65-5.82c-5.26,0.9-10.17,2.93-14.64,5.77c-5.12,3.26-10.16,6.67-14.99,10.34
		c-8.55,6.5-16.24,13.97-23.87,21.51c-13.22,13.05-25.62,26.84-37.56,41.05c-0.64,0.76-1.12,1.77-2.9,2.35
		c1.22-2.44,2.12-4.28,3.05-6.1c5.85-11.37,11.53-22.83,16.3-34.71c2.74-6.83,5.33-13.72,6.69-20.97c0.53-2.8,0.74-5.74,0.51-8.57
		c-0.57-7.01-5.55-11.27-12.53-11.18c-2.45,0.03-4.79,0.57-6.95,1.62c-3.16,1.53-6.34,3.07-9.29,4.96
		c-10.15,6.5-19.01,14.6-27.67,22.92c-0.44,0.42-0.74,0.99-1.22,1.65C1990.44,362.88,1990.94,363.43,1991.62,364.2z M2433.67,333.42
		c-0.38,2.84-0.44,2.99,1.26,3.69c4.84,2.02,6.55,5.82,6.32,10.74c-0.1,2.07-0.24,4.17-0.72,6.17c-0.82,3.41-1.78,6.8-2.95,10.11
		c-1.87,5.27-3.96,10.46-5.95,15.68c-8.39,21.93-16.77,43.87-25.21,65.78c-0.58,1.52-0.78,3.34-2.54,4.64
		c-0.78-1.68-1.48-3.09-2.09-4.55c-10.9-25.75-21.81-51.49-32.66-77.25c-2.48-5.89-4.84-11.83-7.13-17.79
		c-0.8-2.07-1.31-4.27-1.79-6.45c-0.57-2.57,0.17-4.74,2.41-6.28c0.39-0.27,0.8-0.53,1.21-0.78c1.57-0.95,1.53-2.18,0.78-3.53
		c-5.09-0.55-34.75-0.48-38.41,0.08c-0.45,2.74-0.51,2.84,1.23,3.99c4.11,2.73,7.16,6.4,9.43,10.68c2.32,4.37,4.51,8.82,6.46,13.37
		c4.85,11.3,9.53,22.68,14.28,34.03c9.86,23.58,19.72,47.17,29.6,70.74c0.67,1.59,0.96,3.42,2.52,4.52c3.5,0,7,0,10.72,0
		c0.75-1.83,1.51-3.58,2.19-5.35c12.94-33.53,25.85-67.08,38.82-100.6c1.73-4.47,3.7-8.84,5.61-13.23c0.36-0.82,0.96-1.53,1.54-2.43
		c3.01,1.52,4.74,3.74,5.58,6.58c0.63,2.13,1.12,4.35,1.29,6.56c0.31,3.98,0.44,7.99,0.44,11.98c0.04,19.99,0.05,39.98,0,59.97
		c-0.01,4.8-0.16,9.6-0.44,14.38c-0.16,2.7-0.54,5.42-1.13,8.06c-0.99,4.38-3.17,8-7.42,10.05c-0.68,0.33-1.31,0.79-1.95,1.19
		c0.07,0.86,0.06,1.5,0.19,2.1c0.05,0.26,0.36,0.46,0.56,0.69c6.12,0.53,38.54,0.39,42.27-0.22c0.04-0.88,0.09-1.79,0.13-2.64
		c-0.58-0.38-0.94-0.69-1.36-0.89c-4.57-2.19-6.89-6.09-7.92-10.82c-0.61-2.8-1.01-5.68-1.17-8.54c-0.26-4.63-0.32-9.27-0.32-13.91
		c-0.03-31.66-0.01-63.33-0.01-94.99c0-1.28-0.03-2.56-0.01-3.84c0.04-1.8-0.69-3.03-2.45-3.63c-4.54,1.35-8.52,4.14-13.23,5.12
		c-0.31-1.18-0.55-2.1-0.83-3.17C2451.85,333.42,2442.92,333.42,2433.67,333.42z M2580.41,416.9c0.33,0,0.67,0.01,1,0.01
		c0,1.57,0,3.13,0,4.7c0,13.27,0.08,26.55-0.03,39.82c-0.05,7.03,2.83,9.73,9.44,9.68c6.4-0.05,12.79-0.01,19.19-0.02
		c0.8,0,1.65,0.08,2.37-0.17c0.49-0.17,1.03-0.79,1.15-1.3c0.13-0.54-0.01-1.37-0.37-1.77c-0.51-0.56-1.32-0.87-2.03-1.25
		c-3.62-1.92-5.76-4.99-6.77-8.87c-0.48-1.85-0.9-3.75-1.04-5.64c-0.38-5.42-0.82-10.84-0.85-16.27
		c-0.11-18.39-0.07-36.78-0.03-55.17c0.01-5.95-0.56-11.83-2.09-17.57c-4.13-15.45-13.47-25.93-29.34-29.76
		c-11.7-2.83-23.43-2.69-35.11,0.37c-11.23,2.95-20.89,8.77-29.51,16.34c-3.95,3.47-7.46,7.44-11.1,11.26
		c-1.04,1.09-0.83,1.48,1.1,3c0.76-0.75,1.54-1.52,2.32-2.29c2.62-2.58,5.1-5.31,7.89-7.7c12.67-10.87,27.27-15.75,43.95-13.48
		c13.05,1.77,22.63,8.31,27.47,20.93c1.73,4.5,2.65,9.21,3.13,13.99c0.12,1.23-0.05,2.49-0.08,3.89c-1.86,0.54-3.52,1.05-5.19,1.51
		c-10.64,2.88-21.28,5.72-31.91,8.63c-10.49,2.87-20.79,6.29-30.79,10.57c-7.26,3.11-13.88,7.2-19.57,12.75
		c-4.6,4.49-7.66,9.83-8.93,16.11c-1.21,6.02-1.24,12.1,0.17,18.09c2.6,11.12,9.55,18.72,19.93,22.97
		c14.07,5.75,27.82,4.72,40.88-3.24c6.48-3.95,11.9-9.15,16.67-15.03c7.65-9.42,13.08-20.04,16.86-31.53
		C2579.59,419.27,2580.01,418.09,2580.41,416.9z M1924.45,467.69c-6.08-2.31-8.84-6.89-9.68-12.86c-0.22-1.58-0.59-3.15-0.67-4.74
		c-0.27-5.75-0.61-11.5-0.64-17.26c-0.08-16.64-0.01-33.28-0.04-49.91c-0.01-3.2-0.06-6.4-0.3-9.59c-0.5-6.59-2.02-12.94-4.87-18.93
		c-4.79-10.07-12.47-16.86-23.14-20.2c-4.14-1.29-8.38-1.98-12.69-2.42c-13.39-1.38-26.15,0.7-38.16,6.82
		c-10.99,5.6-20.22,13.41-28.06,22.89c-0.28,0.34-0.39,0.82-0.56,1.19c1.33,1.53,1.86,1.74,2.6,1c0.79-0.79,1.5-1.66,2.27-2.48
		c4.37-4.71,9.07-9.03,14.56-12.42c12.85-7.93,26.66-10.54,41.4-6.96c11.23,2.73,18.89,9.64,22.81,20.6
		c1.68,4.7,2.69,9.53,2.93,14.52c0.04,0.91-0.17,1.83-0.28,2.81c-1.73,0.49-3.25,0.95-4.78,1.36c-10.8,2.91-21.61,5.76-32.39,8.74
		c-10.33,2.85-20.49,6.22-30.35,10.44c-7.57,3.24-14.48,7.47-20.3,13.38c-4.26,4.33-6.99,9.45-8.34,15.38
		c-0.83,3.64-0.95,7.3-0.81,10.97c0.53,13.74,6.97,23.84,19.42,29.56c14.37,6.61,28.59,5.69,42.2-2.47
		c5.25-3.14,9.79-7.2,13.88-11.73c9.04-10.01,15.31-21.6,19.57-34.34c0.49-1.47,0.98-2.94,1.65-4.91c1.16,1.77,0.85,3.22,0.85,4.58
		c0.02,13.12,0,26.24,0.03,39.36c0,1.91,0.07,3.85,0.39,5.73c0.41,2.39,1.94,4,4.28,4.68c1.06,0.31,2.19,0.58,3.29,0.58
		c7.67,0,15.35-0.06,23.02-0.13c0.25,0,0.5-0.32,0.91-0.59C1924.45,469.66,1924.45,468.9,1924.45,467.69z M2340.69,432.97
		c-1.49,1.47-2.74,2.68-3.97,3.91c-4.99,5.02-10.56,9.28-16.7,12.8c-4.05,2.32-8.34,4.06-12.86,5.16
		c-9.13,2.23-18.39,2.55-27.61,0.85c-20.09-3.69-34.17-15.04-42.14-33.88c-3.79-8.97-5.25-18.4-5.45-28.06
		c-0.09-4.45,0-8.89,1.25-13.53c1.79-0.06,3.52-0.17,5.24-0.17c18.39-0.01,36.78-0.01,55.17-0.01c13.75,0,27.51,0.02,41.26-0.02
		c1.71-0.01,3.51,0.43,5.27-0.62c0.07-0.75,0.21-1.53,0.2-2.3c-0.11-4.35-0.99-8.58-2.52-12.64c-5.79-15.45-16.97-25.3-32.43-30.3
		c-9.71-3.14-19.72-3.48-29.88-2.24c-27.76,3.39-51.62,23.68-59.54,50.38c-3.79,12.79-4.43,25.83-2.05,38.92
		c2.95,16.24,10.96,29.54,24.31,39.41c10.27,7.59,21.83,11.82,34.57,12.87c13.64,1.13,26.33-1.68,38.18-8.56
		c9.09-5.29,16.86-12.11,23.81-19.91c2.44-2.74,4.72-5.64,7-8.52C2342.73,435.35,2342.63,435.23,2340.69,432.97z M1755.03,470.92
		c1,0.08,2.1,0.24,3.2,0.25c11.84,0.02,23.67,0.01,35.51,0.01c0.8,0,1.63,0.08,2.38-0.12c0.53-0.14,1.27-0.66,1.34-1.1
		c0.11-0.7-0.11-1.57-0.5-2.17c-0.3-0.48-1.04-0.7-1.61-1c-3.83-1.96-5.99-5.2-6.97-9.27c-0.49-2.01-0.91-4.07-1.04-6.13
		c-0.37-5.58-0.79-11.17-0.79-16.76c-0.06-59.5-0.03-119-0.04-178.5c0-1.44-0.03-2.88-0.01-4.32c0.02-1.69-0.82-2.68-2.48-3.14
		c-0.39,0.1-0.89,0.14-1.31,0.33c-8.64,3.78-17.27,7.57-25.89,11.38c-1.15,0.51-2.42,0.92-2.43,2.58c0,1.64,1.27,2.11,2.37,2.67
		c4.53,2.31,6.83,6.2,7.52,11.03c0.54,3.79,0.96,7.63,0.97,11.45c0.06,50.38,0.07,100.76-0.01,151.15
		c-0.01,4.94-0.46,9.9-1.04,14.82c-0.67,5.63-2.82,10.49-8.39,13.1C1754.12,467.97,1754.08,469.28,1755.03,470.92z M2479.88,298.69
		c0.12-7.72-5.58-15.12-15.19-15c-8.49,0.1-15.01,6.98-14.87,15.5c0.13,8.04,7.28,15.1,15.57,14.89
		C2471.89,313.92,2480.22,307.95,2479.88,298.69z"/>
	<path class="st0" d="M1991.62,364.2c-0.68-0.77-1.18-1.32-1.77-1.99c0.48-0.66,0.78-1.22,1.22-1.65
		c8.66-8.32,17.51-16.42,27.67-22.92c2.95-1.89,6.13-3.43,9.29-4.96c2.16-1.05,4.5-1.59,6.95-1.62c6.98-0.09,11.97,4.17,12.53,11.18
		c0.23,2.83,0.02,5.77-0.51,8.57c-1.36,7.25-3.95,14.15-6.69,20.97c-4.77,11.88-10.45,23.34-16.3,34.71
		c-0.94,1.82-1.83,3.66-3.05,6.1c1.79-0.58,2.26-1.59,2.9-2.35c11.94-14.22,24.35-28.01,37.56-41.05
		c7.63-7.53,15.33-15.01,23.87-21.51c4.83-3.67,9.87-7.08,14.99-10.34c4.47-2.84,9.37-4.87,14.64-5.77
		c6.29-1.07,11.77,0.28,15.65,5.82c0.27,0.39,0.61,0.72,1.13,1.32c1.09-0.37,2.28-0.69,3.41-1.17c4.83-2.08,9.64-4.21,14.19-6.21
		c2.29,0.91,2.79,2.4,2.77,4.35c-0.06,8.32-0.03,16.64-0.01,24.95c0,1.54,0.11,3.08,0.18,5.07c1.66-1.16,1.98-2.62,2.62-3.8
		c4.2-7.67,9.5-14.43,16.45-19.78c12.38-9.53,26.39-12.45,41.64-9.9c1.86,0.31,3.67,1.09,5.4,1.89c2.48,1.14,3.33,3.22,3.07,5.91
		c-0.7,7.34-7.72,13.98-15.13,14.25c-4.2,0.15-8.3-0.53-12.33-1.55c-6.81-1.72-13.59-3.59-20.38-5.39c-0.76-0.2-1.52-0.42-2.53-0.7
		c-1.4,1.25-2.92,2.41-4.22,3.79c-6.97,7.34-11.82,15.87-14.01,25.8c-0.48,2.17-0.73,4.43-0.73,6.65
		c-0.03,19.84-0.04,39.67,0.08,59.51c0.03,4.14,0.5,8.3,1.07,12.41c0.3,2.18,1.1,4.34,1.96,6.38c1.39,3.27,4.25,5.1,7.47,6.65
		c0,0.91,0,1.82,0,2.96c-0.88,0.14-1.63,0.34-2.38,0.37c-15.82,0.45-36.3,0.21-40.39-0.48c-0.08-0.72-0.17-1.48-0.29-2.46
		c0.68-0.43,1.29-0.91,1.98-1.24c4.22-2.05,6.43-5.6,7.48-10.01c1.27-5.33,1.43-10.78,1.61-16.2c0.18-5.27,0.1-10.56,0.1-15.83
		c0.01-12.32,0-24.63,0-36.95c0-1.59,0-3.17,0-4.64c-1.03-0.51-1.37-0.05-1.64,0.59c-1.17,2.8-2.25,5.64-3.54,8.39
		c-12.28,26.22-30.27,47.67-54.06,64.17c-9.24,6.41-19.16,11.58-30.16,14.33c-6.85,1.71-13.76,2.76-20.88,1.78
		c-5.08-0.7-9.6-2.55-13.36-5.96c-2.95-2.67-5.61-5.65-8.55-8.64c-1.22-0.01-1.36,1.34-1.83,2.24
		c-6.49,12.66-12.93,25.34-19.4,38.02c-6.97,13.67-13.95,27.34-20.93,41c-0.58,1.14-1.17,2.27-1.77,3.4c-1,1.86-2.56,2.76-4.69,2.75
		c-4.48-0.02-8.96-0.01-13.44-0.02c-0.32,0-0.64-0.04-0.95-0.1c-1.96-0.36-3.01-1.99-2.29-3.92c0.61-1.64,1.48-3.18,2.29-4.74
		c23.04-44.41,46.09-88.82,69.12-133.23c5.15-9.93,10.21-19.92,14.27-30.36c1.91-4.9,3.57-9.93,4.95-15
		c0.69-2.56,0.75-5.38,0.61-8.06c-0.17-3.19-1.87-4.46-5.04-4.55c-1.98-0.05-3.84,0.45-5.51,1.42c-2.62,1.53-5.27,3.07-7.64,4.93
		c-3.9,3.06-7.58,6.38-11.36,9.59C1993.92,362.29,1992.84,363.18,1991.62,364.2z M2112.76,363.91c0-2.08,0.21-4.18-0.05-6.23
		c-0.3-2.35-0.75-4.76-1.6-6.96c-1.41-3.65-4.26-5.42-8.25-5.31c-2.29,0.06-4.48,0.58-6.44,1.65c-3.22,1.76-6.45,3.54-9.45,5.64
		c-7.62,5.32-14.53,11.51-21.24,17.92c-19.47,18.59-37.03,38.87-53.45,60.17c-0.49,0.63-0.92,1.31-1.43,1.92
		c-0.91,1.11-0.97,2.31-0.47,3.6c4.13,10.71,10.94,19.06,21.38,24.17c3.34,1.63,6.89,2.38,10.65,2.42
		c8.4,0.09,16.07-2.25,23.19-6.59c7.6-4.64,13.95-10.66,19.37-17.68c10.68-13.83,18.1-29.31,23.05-46.01
		C2110.79,383.26,2112.78,373.74,2112.76,363.91z"/>
	<path class="st0" d="M2433.67,333.42c9.25,0,18.18,0,27.15,0c0.28,1.07,0.52,1.99,0.83,3.17c4.7-0.98,8.69-3.77,13.23-5.12
		c1.75,0.6,2.49,1.83,2.45,3.63c-0.03,1.28,0.01,2.56,0.01,3.84c0,31.66-0.01,63.33,0.01,94.99c0,4.64,0.07,9.28,0.32,13.91
		c0.16,2.86,0.56,5.74,1.17,8.54c1.03,4.72,3.35,8.62,7.92,10.82c0.42,0.2,0.78,0.51,1.36,0.89c-0.04,0.85-0.09,1.76-0.13,2.64
		c-3.72,0.61-36.14,0.75-42.27,0.22c-0.19-0.23-0.51-0.43-0.56-0.69c-0.12-0.61-0.12-1.24-0.19-2.1c0.65-0.4,1.27-0.86,1.95-1.19
		c4.25-2.05,6.43-5.67,7.42-10.05c0.6-2.64,0.97-5.36,1.13-8.06c0.28-4.79,0.43-9.59,0.44-14.38c0.05-19.99,0.04-39.98,0-59.97
		c-0.01-3.99-0.14-8-0.44-11.98c-0.17-2.21-0.66-4.43-1.29-6.56c-0.84-2.84-2.57-5.06-5.58-6.58c-0.58,0.9-1.19,1.61-1.54,2.43
		c-1.91,4.39-3.88,8.77-5.61,13.23c-12.97,33.52-25.88,67.07-38.82,100.6c-0.68,1.77-1.44,3.51-2.19,5.35c-3.72,0-7.22,0-10.72,0
		c-1.56-1.1-1.85-2.93-2.52-4.52c-9.88-23.58-19.74-47.16-29.6-70.74c-4.75-11.35-9.43-22.73-14.28-34.03
		c-1.95-4.54-4.14-9-6.46-13.37c-2.27-4.28-5.32-7.95-9.43-10.68c-1.74-1.15-1.68-1.25-1.23-3.99c3.67-0.55,33.33-0.63,38.41-0.08
		c0.75,1.36,0.79,2.58-0.78,3.53c-0.41,0.25-0.82,0.51-1.21,0.78c-2.24,1.54-2.98,3.71-2.41,6.28c0.48,2.18,1,4.38,1.79,6.45
		c2.29,5.96,4.65,11.91,7.13,17.79c10.86,25.76,21.76,51.51,32.66,77.25c0.61,1.45,1.32,2.87,2.09,4.55
		c1.76-1.3,1.96-3.12,2.54-4.64c8.44-21.92,16.81-43.85,25.21-65.78c2-5.22,4.09-10.41,5.95-15.68c1.17-3.3,2.13-6.7,2.95-10.11
		c0.48-2,0.62-4.1,0.72-6.17c0.23-4.92-1.48-8.72-6.32-10.74C2433.24,336.4,2433.3,336.26,2433.67,333.42z"/>
	<path class="st0" d="M2580.41,416.9c-0.41,1.19-0.83,2.37-1.22,3.56c-3.78,11.49-9.21,22.1-16.86,31.53
		c-4.77,5.88-10.19,11.07-16.67,15.03c-13.05,7.96-26.81,8.99-40.88,3.24c-10.37-4.24-17.32-11.84-19.93-22.97
		c-1.4-5.99-1.38-12.08-0.17-18.09c1.27-6.27,4.32-11.62,8.93-16.11c5.69-5.55,12.32-9.64,19.57-12.75
		c10-4.28,20.31-7.7,30.79-10.57c10.63-2.91,21.28-5.75,31.91-8.63c1.68-0.45,3.33-0.97,5.19-1.51c0.04-1.4,0.21-2.66,0.08-3.89
		c-0.48-4.79-1.4-9.49-3.13-13.99c-4.84-12.61-14.43-19.15-27.47-20.93c-16.68-2.26-31.28,2.61-43.95,13.48
		c-2.78,2.39-5.27,5.12-7.89,7.7c-0.78,0.77-1.56,1.54-2.32,2.29c-1.93-1.52-2.14-1.9-1.1-3c3.64-3.82,7.15-7.79,11.1-11.26
		c8.61-7.58,18.28-13.4,29.51-16.34c11.68-3.06,23.41-3.2,35.11-0.37c15.87,3.84,25.21,14.31,29.34,29.76
		c1.53,5.74,2.1,11.61,2.09,17.57c-0.04,18.39-0.07,36.78,0.03,55.17c0.03,5.42,0.47,10.85,0.85,16.27c0.13,1.9,0.56,3.79,1.04,5.64
		c1.01,3.88,3.15,6.95,6.77,8.87c0.7,0.37,1.51,0.68,2.03,1.25c0.36,0.4,0.5,1.22,0.37,1.77c-0.13,0.51-0.66,1.14-1.15,1.3
		c-0.73,0.25-1.58,0.16-2.37,0.17c-6.4,0.01-12.79-0.04-19.19,0.02c-6.62,0.06-9.5-2.65-9.44-9.68c0.1-13.27,0.03-26.54,0.03-39.82
		c0-1.57,0-3.13,0-4.7C2581.08,416.91,2580.75,416.91,2580.41,416.9z M2580.93,383.38c-1.38,0.27-2.77,0.47-4.11,0.83
		c-10.32,2.78-20.63,5.6-30.95,8.4c-6.95,1.89-13.66,4.43-20.15,7.53c-5.24,2.5-9.94,5.76-13.97,9.96c-4.5,4.69-6.9,10.3-7.28,16.76
		c-0.12,2.07-0.12,4.16-0.02,6.23c0.57,11.14,6.72,19.44,17.29,22.91c10.86,3.57,21.14,1.97,30.63-4.34
		c6.21-4.12,11.17-9.52,15.21-15.75c7.23-11.17,11.66-23.38,13.48-36.55C2581.6,395.41,2581.51,387.1,2580.93,383.38z"/>
	<path class="st0" d="M1924.45,467.69c0,1.21,0,1.98,0,2.64c-0.41,0.27-0.66,0.58-0.91,0.59c-7.67,0.07-15.35,0.14-23.02,0.13
		c-1.1,0-2.22-0.27-3.29-0.58c-2.35-0.69-3.88-2.29-4.28-4.68c-0.32-1.88-0.39-3.82-0.39-5.73c-0.03-13.12-0.01-26.24-0.03-39.36
		c0-1.36,0.31-2.81-0.85-4.58c-0.66,1.97-1.16,3.44-1.65,4.91c-4.25,12.74-10.52,24.33-19.57,34.34c-4.1,4.53-8.63,8.59-13.88,11.73
		c-13.61,8.15-27.83,9.07-42.2,2.47c-12.45-5.72-18.89-15.83-19.42-29.56c-0.14-3.67-0.02-7.33,0.81-10.97
		c1.36-5.94,4.08-11.06,8.34-15.38c5.82-5.9,12.73-10.14,20.3-13.38c9.86-4.22,20.02-7.59,30.35-10.44
		c10.78-2.97,21.6-5.82,32.39-8.74c1.53-0.41,3.05-0.87,4.78-1.36c0.1-0.98,0.32-1.9,0.28-2.81c-0.24-4.98-1.25-9.81-2.93-14.52
		c-3.91-10.97-11.58-17.87-22.81-20.6c-14.74-3.58-28.55-0.97-41.4,6.96c-5.49,3.39-10.19,7.71-14.56,12.42
		c-0.76,0.82-1.47,1.69-2.27,2.48c-0.74,0.74-1.27,0.53-2.6-1c0.17-0.37,0.28-0.85,0.56-1.19c7.84-9.48,17.06-17.3,28.06-22.89
		c12.02-6.12,24.78-8.2,38.16-6.82c4.31,0.44,8.56,1.13,12.69,2.42c10.67,3.34,18.35,10.13,23.14,20.2
		c2.85,5.99,4.37,12.35,4.87,18.93c0.24,3.19,0.3,6.39,0.3,9.59c0.03,16.64-0.04,33.28,0.04,49.91c0.03,5.75,0.36,11.51,0.64,17.26
		c0.08,1.59,0.44,3.16,0.67,4.74C1915.61,460.8,1918.37,465.37,1924.45,467.69z M1891.98,383.27c-1.65,0.37-3.04,0.63-4.39,0.99
		c-9.55,2.57-19.1,5.15-28.65,7.74c-7.25,1.97-14.32,4.45-21.14,7.61c-5.85,2.71-11.12,6.26-15.52,11.03
		c-2.88,3.12-4.86,6.73-5.95,10.8c-1.03,3.89-1.32,7.88-0.96,11.89c1.27,14.09,9.63,20.81,19.9,23.43
		c10.13,2.58,19.65,0.64,28.32-5.23c5.08-3.44,9.42-7.68,12.95-12.68c11.25-15.92,16.65-33.62,15.96-53.14
		C1892.47,384.97,1892.2,384.24,1891.98,383.27z"/>
	<path class="st0" d="M2340.69,432.97c1.94,2.26,2.04,2.39,1.13,3.54c-2.28,2.88-4.56,5.78-7,8.52
		c-6.95,7.8-14.72,14.62-23.81,19.91c-11.85,6.89-24.54,9.69-38.18,8.56c-12.75-1.06-24.3-5.29-34.57-12.87
		c-13.36-9.87-21.36-23.17-24.31-39.41c-2.38-13.09-1.74-26.13,2.05-38.92c7.92-26.7,31.78-46.99,59.54-50.38
		c10.15-1.24,20.17-0.9,29.88,2.24c15.46,5,26.64,14.85,32.43,30.3c1.52,4.06,2.41,8.28,2.52,12.64c0.02,0.78-0.13,1.56-0.2,2.3
		c-1.75,1.05-3.56,0.61-5.27,0.62c-13.75,0.04-27.51,0.02-41.26,0.02c-18.39,0-36.78,0-55.17,0.01c-1.73,0-3.46,0.11-5.24,0.17
		c-1.25,4.64-1.34,9.09-1.25,13.53c0.19,9.66,1.65,19.09,5.45,28.06c7.97,18.85,22.04,30.19,42.14,33.88
		c9.22,1.69,18.48,1.38,27.61-0.85c4.52-1.1,8.81-2.84,12.86-5.16c6.14-3.52,11.71-7.78,16.7-12.8
		C2337.95,435.65,2339.2,434.44,2340.69,432.97z M2233.77,376.28c1.99,0.1,3.4,0.23,4.82,0.24c5.92,0.02,11.83,0.01,17.75,0.01
		c19.03,0,38.06,0.02,57.08-0.03c1.69,0,3.49,0.49,5.16-0.63c-0.06-0.68-0.08-1.31-0.17-1.94c-0.11-0.79-0.23-1.59-0.44-2.36
		c-2.67-9.4-7.17-17.75-14.31-24.55c-5.44-5.19-11.72-8.76-19.15-10.33c-4.13-0.87-8.28-0.81-12.41-0.56
		c-8.4,0.51-15.94,3.41-22.13,9.17C2241.13,353.55,2236.23,363.94,2233.77,376.28z"/>
	<path class="st0" d="M1755.03,470.92c-0.96-1.64-0.91-2.95,0.77-3.74c5.57-2.6,7.72-7.46,8.39-13.1c0.58-4.91,1.03-9.88,1.04-14.82
		c0.08-50.38,0.07-100.76,0.01-151.15c0-3.82-0.43-7.66-0.97-11.45c-0.69-4.83-2.98-8.72-7.52-11.03c-1.1-0.56-2.38-1.03-2.37-2.67
		c0-1.66,1.28-2.07,2.43-2.58c8.62-3.81,17.26-7.6,25.89-11.38c0.43-0.19,0.92-0.24,1.31-0.33c1.66,0.45,2.5,1.45,2.48,3.14
		c-0.02,1.44,0.01,2.88,0.01,4.32c0,59.5-0.02,119,0.04,178.5c0.01,5.59,0.43,11.18,0.79,16.76c0.13,2.06,0.56,4.12,1.04,6.13
		c0.98,4.07,3.14,7.31,6.97,9.27c0.57,0.29,1.31,0.52,1.61,1c0.38,0.61,0.6,1.48,0.5,2.17c-0.07,0.44-0.81,0.95-1.34,1.1
		c-0.75,0.2-1.58,0.12-2.38,0.12c-11.84,0-23.67,0.01-35.51-0.01C1757.13,471.16,1756.03,471,1755.03,470.92z"/>
	<path class="st0" d="M2479.88,298.69c0.34,9.25-7.99,15.23-14.49,15.39c-8.29,0.21-15.44-6.86-15.57-14.89
		c-0.14-8.52,6.38-15.4,14.87-15.5C2474.3,283.58,2480,290.97,2479.88,298.69z"/>
	<path d="M2112.76,363.91c0.02,9.83-1.97,19.36-4.74,28.73c-4.95,16.7-12.37,32.18-23.05,46.01c-5.42,7.02-11.77,13.04-19.37,17.68
		c-7.12,4.34-14.79,6.68-23.19,6.59c-3.76-0.04-7.32-0.78-10.65-2.42c-10.44-5.11-17.25-13.46-21.38-24.17
		c-0.5-1.29-0.44-2.48,0.47-3.6c0.51-0.62,0.94-1.29,1.43-1.92c16.42-21.3,33.98-41.59,53.45-60.17
		c6.71-6.41,13.62-12.6,21.24-17.92c3-2.09,6.23-3.88,9.45-5.64c1.97-1.08,4.15-1.59,6.44-1.65c3.99-0.11,6.84,1.66,8.25,5.31
		c0.85,2.2,1.3,4.6,1.6,6.96C2112.96,359.73,2112.76,361.83,2112.76,363.91z"/>
	<path d="M2580.93,383.38c0.58,3.72,0.67,12.03,0.13,15.97c-1.82,13.16-6.24,25.38-13.48,36.55c-4.04,6.24-9,11.63-15.21,15.75
		c-9.49,6.31-19.77,7.91-30.63,4.34c-10.57-3.47-16.72-11.77-17.29-22.91c-0.11-2.07-0.11-4.16,0.02-6.23
		c0.38-6.46,2.78-12.07,7.28-16.76c4.03-4.2,8.73-7.45,13.97-9.96c6.49-3.11,13.2-5.64,20.15-7.53c10.31-2.81,20.63-5.62,30.95-8.4
		C2578.16,383.85,2579.55,383.65,2580.93,383.38z"/>
	<path d="M1891.98,383.27c0.21,0.97,0.49,1.7,0.51,2.44c0.7,19.52-4.71,37.22-15.96,53.14c-3.53,4.99-7.87,9.24-12.95,12.68
		c-8.67,5.87-18.18,7.81-28.32,5.23c-10.27-2.61-18.63-9.34-19.9-23.43c-0.36-4.01-0.07-7.99,0.96-11.89
		c1.08-4.08,3.07-7.69,5.95-10.8c4.4-4.77,9.67-8.31,15.52-11.03c6.82-3.16,13.89-5.65,21.14-7.61c9.55-2.59,19.1-5.17,28.65-7.74
		C1888.95,383.9,1890.33,383.64,1891.98,383.27z"/>
	<path d="M2233.77,376.28c2.46-12.35,7.36-22.73,16.21-30.97c6.2-5.76,13.74-8.67,22.13-9.17c4.13-0.25,8.28-0.31,12.41,0.56
		c7.42,1.56,13.71,5.14,19.15,10.33c7.14,6.81,11.64,15.15,14.31,24.55c0.22,0.77,0.33,1.56,0.44,2.36
		c0.09,0.62,0.11,1.26,0.17,1.94c-1.67,1.12-3.48,0.63-5.16,0.63c-19.03,0.04-38.06,0.03-57.08,0.03c-5.92,0-11.83,0.01-17.75-0.01
		C2237.17,376.51,2235.76,376.39,2233.77,376.28z"/>
</g>
</svg>
