<?xml version="1.0" encoding="utf-8" ?><svg xmlns="http://www.w3.org/2000/svg" xmlns:xlink="http://www.w3.org/1999/xlink" width="441" height="263" viewBox="0 0 441 263"><path fill="#131313" d="M206.988 12.1093C235.831 10.3039 264.283 19.5254 286.584 37.907C292.68 42.9661 296.875 48.0819 302.388 53.384C308.233 59.0052 318.456 62.4989 326.424 63.1618C334.293 63.8164 341.034 62.5681 348.774 61.2324C365.131 58.483 380.203 53.3714 396.526 50.1566C403.665 48.7506 418.371 45.09 425.122 49.4062C427.765 51.0962 425.195 55.6948 423.457 57.5956C414.991 66.8501 404.611 74.266 394.642 81.8359L353.79 112.249C346.632 117.47 336.456 124.426 330.522 130.641C330.498 131.484 330.492 132.413 330.512 133.26C330.691 140.835 330.132 148.257 328.721 155.714C322.751 186.27 304.997 213.249 279.296 230.82C258.226 245.168 235.802 252.784 210.446 251.633C208.55 251.547 206.534 251.632 204.613 251.591C185.219 251.18 165.797 243.311 149.448 233.294C147.07 231.386 139.597 228.367 143.623 224.571C147.819 220.266 153.963 217.013 158.75 213.851C169.724 206.602 174.264 206.369 186.211 211.448C191.879 213.857 200.464 215.312 206.894 215.731C223.46 216.967 239.994 212.94 254.137 204.225C275 191.629 289.112 171.227 293.486 147.212C294.597 141.112 293.794 135.685 294.888 129.99C296.366 122.29 304.06 117.786 310.37 114.03C310.812 113.668 315.132 111.3 315.844 110.89L331.877 101.801L361.878 84.9963C372.854 78.8702 383.755 72.8756 395.018 67.2838C395.785 66.9029 397.103 66.3784 397.148 65.487C395.639 64.7381 392.634 65.9587 391.134 66.5287C359.2 78.6623 329.328 95.7079 299.497 112.208C280.026 122.809 260.633 133.554 241.32 144.441C218.539 157.51 195.645 170.379 172.64 183.048C157.128 191.398 141.567 199.14 125.3 205.934C106.852 213.638 38.0491 237.405 21.5672 232.282C19.1058 231.517 17.5411 230.18 16.3435 227.916C16.5794 220.059 23.7782 213.588 28.9057 208.177L36.9244 199.59C47.6439 188.337 58.6475 177.706 69.4803 166.278C77.0488 158.293 87.2291 148.241 93.9862 139.444C95.6587 137.267 94.9277 126.009 95.1303 122.232C96.682 93.3085 108.623 68.1712 128.348 47.1471C148.899 25.5325 177.174 12.935 206.988 12.1093ZM195.418 153.637C211.571 145.85 227.232 136.907 243.06 128.506C254.633 122.364 266.411 116.62 277.67 109.849C281.343 107.64 286.659 104.864 289.921 102.177C278.876 78.0969 265.019 62.6935 239.804 52.9606C230.903 49.525 216.406 47.2627 206.898 48.4012C187.138 48.8979 166.137 59.3141 152.711 73.6606C137.172 90.0618 128.985 113.453 129.664 135.928C129.98 146.416 132.885 160.515 139.817 168.729C142.627 172.058 155.232 170.887 158.924 169.736C171.24 165.898 184.03 159.733 195.418 153.637Z"/></svg>