<?xml version="1.0" encoding="utf-8" ?><svg xmlns="http://www.w3.org/2000/svg" xmlns:xlink="http://www.w3.org/1999/xlink" width="710" height="159" viewBox="0 0 710 159"><path fill="#ffffff" d="M228.057 18.3508C233.892 18.2703 239.728 18.268 245.563 18.3439C246.19 31.3037 245.772 47.777 245.797 61.0259C247.456 60.1573 250.031 58.0557 251.53 56.84C274.118 38.5137 307.201 54.796 308.73 83.321C309.485 97.3921 309.569 110.617 299.787 122.229C290.904 131.642 281.233 134.81 268.368 134.003C258.975 133.413 252.699 129.833 246.484 122.835C246.511 124.63 246.793 131.865 245.815 132.339C242.926 133.74 231.141 132.987 228.233 132.523C227.883 121.988 228.251 110.49 228.178 99.8298C227.994 72.7053 228.424 45.4735 228.057 18.3508ZM270.349 118.021C282.372 115.816 288.323 110.885 290.829 98.3723C294.076 82.1547 286.053 63.6833 267.131 64.8879C246.878 67.2328 241.319 87.8572 248.283 105.111C251.174 112.273 262.528 118.855 270.349 118.021Z"/><path fill="#ffffff" d="M646.319 49.2867C658.622 47.5033 671.198 50.7794 680.29 59.3718C692.019 70.4569 691.929 81.131 692.395 95.782C688.185 96.1662 680.317 95.7672 675.779 95.8825C660.777 96.2635 644.614 95.3512 629.71 95.9681C630.445 102.195 632.22 107.824 636.854 112.321C641.278 116.616 647.832 118.45 653.896 118.289C659.197 118.148 666.307 116.297 669.94 112.225C671.383 110.607 672.886 108.263 674.335 106.586C674.955 105.868 676.161 106.088 677.152 106.092C681.901 106.76 686.418 107.862 691.176 108.455C690.122 112.157 689.003 114.667 686.798 117.896C681.235 125.944 672.68 131.432 663.041 133.134C651.414 135.305 638.992 133.766 629.188 126.991C621.676 121.886 614.639 112.115 613.237 103.019C609.329 77.6808 618.879 54.2498 646.319 49.2867ZM654.333 83.8903C660.031 83.8952 668.541 84.1398 674.017 83.8359C672.252 69.8805 665.225 61.9045 650.441 62.8009C639.622 64.4712 631.776 71.6352 630.746 82.912C630.725 83.1337 631.186 83.4964 631.353 83.6614C634.043 84.1318 650.623 83.8877 654.333 83.8903Z"/><path fill="#ffffff" d="M425.242 49.2643C425.411 49.2426 425.58 49.2275 425.75 49.219C439.325 48.605 447.427 49.8385 458.299 59.3689C468.752 68.5315 470.518 82.6183 471.015 95.8067L430.517 95.6854C424.731 95.6753 413.89 95.3656 408.474 95.9425C408.56 96.5696 408.656 97.1955 408.76 97.8199C411.817 116.005 428.871 123.821 445.223 114.277C448.306 112.477 449.788 109 452.301 106.719C452.301 106.719 453.57 106.502 453.694 106.481C457.527 106.656 464.744 108.301 468.475 109.455C462.843 125.61 449.224 133.99 432.263 134.08C423.233 134.128 416.028 132.6 408.407 127.49C399.903 121.871 393.994 113.094 391.992 103.105C391.333 99.728 391.373 97.166 391.237 93.8274C390.301 70.9061 401.852 53.7552 425.242 49.2643ZM434.712 84.0711C439.474 84.0858 447.714 84.3343 452.211 83.8618C450.203 68.5426 442.178 62.1818 426.816 63.4776C417.511 65.5208 409.941 73.0814 409.564 82.9121C409.558 83.0553 409.798 83.4747 409.884 83.6058C411.697 84.5126 431.261 84.0621 434.712 84.0711Z"/><path fill="#ffffff" d="M141.083 50.1781C144.931 49.8299 155.201 50.0776 159.117 50.1311C159.591 67.8593 158.986 85.5174 160.035 103.344C161.141 122.162 187.445 121.945 193.521 107.059C196.251 100.369 195.394 91.3329 195.509 84.0429C195.686 72.85 195.126 61.4713 196.207 50.2737C201.938 50.1808 208.013 50.0581 213.7 50.6556C214.155 58.0499 213.885 67.8417 213.855 75.3431C213.659 94.3875 213.677 113.434 213.907 132.478C208.917 133.147 201.219 133.15 196.284 132.524L196.084 123.802C189.021 130.616 182.831 133.928 172.908 134.248C157.926 134.73 145.248 127.436 142.193 112.05C140.695 104.504 141.13 95.9382 141.122 88.1238C141.186 75.4753 141.173 62.8265 141.083 50.1781Z"/><path fill="#ffffff" d="M568.135 48.2701C584.203 48.4005 600.925 55.9969 601.545 74.0042C595.664 73.9946 589.08 74.2326 583.281 73.8647C582.174 65.5358 576.052 62.106 568.204 61.8722C562.258 61.695 552.623 64.7018 552.58 71.823C552.528 80.325 566.296 81.6109 572.333 83.0202C581.041 84.7122 591.379 86.6803 597.959 93.0794C606.032 100.93 605.827 116.631 597.696 124.432C588.085 133.653 577.84 134.101 565.529 134.156C553.905 134.088 541.516 129.429 536.248 118.239C534.326 114.156 534.209 110.758 533.932 106.351C539.916 105.898 545.905 105.504 551.897 105.171L551.897 105.275C552 120.701 574.673 123.033 584.183 114.983C586.594 112.943 586.267 110.003 586.228 107.071C578.999 95.7626 554.37 100.416 543.453 90.5027C539.105 86.9716 535.86 82.9746 535.273 77.2149C533.054 55.4382 551.092 50.3164 568.135 48.2701Z"/><path fill="#ffffff" d="M57.4459 49.3254C58.1267 49.1768 60.7295 49.2134 61.5692 49.1902C68.8789 48.9889 76.3079 50.5657 82.5893 54.4604C91.64 60.0721 95.6528 67.8378 98.0766 77.8303C92.2076 77.834 86.6725 78.7714 80.644 78.7598C75.5885 67.9188 69.688 63.3948 57.1419 64.9487C40.401 67.0222 37.8654 84.7495 39.4316 98.5522C40.9545 111.973 51.3505 119.854 64.6952 117.948C71.8277 116.959 75.5467 113.443 79.7099 107.909C80.1725 106.781 80.6157 105.402 81.0238 104.233C87.0762 103.901 93.4249 105.366 99.0789 104.96C97.4677 110.904 94.977 116.346 91.2123 121.259C79.0767 137.096 51.9127 138.216 36.7798 126.362C28.9712 120.206 23.9346 111.198 22.7812 101.327C22.3535 97.7968 22.6707 94.8061 22.4773 91.425C21.211 69.2928 34.8532 52.0028 57.4459 49.3254Z"/><path fill="#ffffff" d="M309.113 50.3317C314.859 50.0331 321.813 50.223 327.644 50.2904C329.057 52.8117 332.081 61.7166 333.202 64.8681C336.301 73.4458 339.347 82.0422 342.341 90.657C344.124 95.8784 348.097 107.806 350.405 112.417C352.452 106.584 372.619 51.8482 373.572 50.9122C374.999 49.5118 389.199 50.3126 391.898 50.3617C390.08 54.2472 387.6 61.3617 385.975 65.6213C383.283 71.6543 381.127 78.0985 378.634 84.2158C372.159 100.108 366.376 116.676 359.831 132.512C355.022 133.021 345.299 132.669 340.369 132.46C336.321 122.051 332.64 111.439 328.532 101.01L315.476 67.8222C314.223 64.6326 309.372 52.9549 309.113 50.3317Z"/><path fill="#ffffff" d="M109.549 18.3167C115.623 18.2949 121.697 18.3302 127.771 18.4226C128.034 22.3042 127.814 28.7919 127.807 32.8798L127.84 59.444C127.856 65.6287 128.388 131.677 127.473 132.915C121.497 133.042 115.52 133.05 109.544 132.937C109.218 123.373 109.477 112.599 109.493 102.923L109.552 47.2109C109.543 37.538 110.302 28.1015 109.549 18.3167Z"/><path fill="#ffffff" d="M498.336 63.2972C499.635 62.4276 501.621 60.3982 502.88 59.2262C507.083 55.3113 511.857 51.714 517.592 50.4895C520.045 49.9659 525.307 49.7811 527.382 51.1391C528.542 52.4766 527.945 64.5654 527.903 67.1642C527.353 67.0593 526.798 66.982 526.241 66.9326C508.214 65.3027 500.538 72.7385 498.966 90.1668C498.652 104.265 499.068 118.771 498.853 132.988C493.148 133.038 486.886 133.146 481.232 132.87C480.844 127.048 481.075 119.246 481.104 113.321L481.081 83.9091L480.979 61.3598C480.969 59.1106 480.796 52.2228 481.145 50.2902C486.458 50.0504 492.793 50.1697 498.131 50.2571C498.17 54.6042 498.238 58.951 498.336 63.2972Z"/></svg>

